<svg xmlns="http://www.w3.org/2000/svg" id="图层_1" data-name="图层 1" viewBox="0 0 52 52"><defs><style>.cls-1{fill:#00c1de}.cls-2,.cls-3{fill:none;stroke:#fff;stroke-miterlimit:10}.cls-3{stroke-width:1.5px}</style></defs><title>开源组件图标设计-</title><path d="M28.43,2.7a23.47,23.47,0,0,1,20.8,20.8H46.62A20.87,20.87,0,0,0,28.43,5.31V2.7M25.93.07V7.66A18.34,18.34,0,0,1,44.27,26h7.6A25.93,25.93,0,0,0,25.93.07Z" class="cls-1"/><path d="M49.23,28.5a23.47,23.47,0,0,1-20.8,20.8V46.69A20.87,20.87,0,0,0,46.62,28.5h2.61M51.87,26h-7.6A18.34,18.34,0,0,1,25.93,44.34v7.59A25.93,25.93,0,0,0,51.87,26Z" class="cls-1"/><path d="M7.6,26A18.34,18.34,0,0,1,25.93,7.66V.07a25.93,25.93,0,0,0,0,51.86V44.34A18.34,18.34,0,0,1,7.6,26Z" class="cls-1"/><line x1="38.37" x2="52" y1="26" y2="26" class="cls-2"/><line x1="43.23" x2="51.87" y1="26" y2="26" class="cls-3"/><line x1="25" x2="25" y1="8.63" class="cls-3"/><line x1="25" x2="25" y1="52.42" y2="43.78" class="cls-3"/></svg>