<svg xmlns="http://www.w3.org/2000/svg" id="图层_1" data-name="图层 1" viewBox="0 0 52 52"><defs><style>.cls-1{fill:none;stroke:#00c1de;stroke-miterlimit:10;stroke-width:4px}.cls-2{fill:#00c1de}</style></defs><title>开源组件图标设计-</title><line x2="52" y1="50" y2="50" class="cls-1"/><path d="M14.25,29.27V48.5H8.76V29.27h5.49m2-2H6.76V50.5h9.49V27.27Z" class="cls-2"/><path d="M43.24,29.84V48.5H37.75V29.84h5.49m2-2H35.75V50.5h9.49V27.84Z" class="cls-2"/><path d="M14.25,39V48.5H8.76V39h5.49m2-2H6.76V50.5h9.49V37Z" class="cls-2"/><path d="M28.74,21.76V48.5H23.26V21.76h5.48m2-2H21.26V50.5h9.48V19.76Z" class="cls-2"/><path d="M28.74,11.5v37H23.26v-37h5.48m2-2H21.26v41h9.48V9.5Z" class="cls-2"/><path d="M43.24,18.17V48.5H37.75V18.17h5.49m2-2H35.75V50.5h9.49V16.17Z" class="cls-2"/></svg>